<?xml version="1.0" encoding="UTF-8"?>
<svg width="800px" height="800px" viewBox="0 0 800 800" version="1.1" xmlns="http://www.w3.org/2000/svg" xmlns:xlink="http://www.w3.org/1999/xlink">
    <title>logo copy 2</title>
    <g id="logo-copy-2" stroke="none" stroke-width="1" fill="none" fill-rule="evenodd">
        <path d="M396,107 C434.95,107 453,91.0450704 453,58.1887324 L453,11 L383.514286,11 L383.514286,31.4169014 L428.571429,31.4169014 L428.571429,58.1887324 C428.571429,71.3042254 424.907143,86.5830986 396,86.5830986 C367.092857,86.5830986 363.428571,71.4394366 363.428571,58.1887324 L339,58.1887324 C339,91.1802817 356.914286,107 396,107 Z" id="J" fill="#000000" fill-rule="nonzero"></path>
        <path d="M66.8019802,453 C77.4917492,453 86.2871287,452.311688 94,450.935065 L94,431.937662 C84.6633663,433.314286 80.6039604,433.314286 73.2970297,433.314286 C59.3981583,433.314286 56.3227196,429.420042 56.2489012,414.204477 L56.2475248,390.225974 L94,390.225974 L94,370.54026 L56.2475248,370.54026 L56.2475248,347 L32.9735974,353.745455 L32.9735974,370.54026 L12,370.54026 L12,390.225974 L32.9735974,390.225974 L32.9735974,427.257143 C32.9735974,445.153247 46.2343234,453 66.8019802,453 Z" id="t" fill="#000000" fill-rule="nonzero" transform="translate(53.000000, 400.000000) rotate(270.000000) translate(-53.000000, -400.000000) "></path>
        <path d="M737.316176,457 C754.436275,457 768.321078,452.246914 776.948529,443.148148 L776.948529,455.641975 L800,455.641975 L800,347 L776.948529,347 L776.948529,388.148148 C768.321078,379.049383 754.436275,374.296296 737.316176,374.296296 C711.838235,374.296296 690,385.160494 690,415.716049 C690,446.271605 711.838235,457 737.316176,457 Z M745.433404,437 C725.054968,437 714,431.009288 714,415.566563 C714,399.990712 725.054968,394 745.433404,394 C765.811839,394 777,399.990712 777,415.566563 C777,431.009288 765.811839,437 745.433404,437 Z" id="d" fill="#000000" fill-rule="nonzero" transform="translate(745.000000, 402.000000) rotate(90.000000) translate(-745.000000, -402.000000) "></path>
        <path d="M357.645963,789 L367.73913,768.565714 L424.126294,768.565714 L434.219462,789 L461,789 L412.283644,693 L379.581781,693 L331,789 L357.645963,789 Z M415,751 L377,751 L396.066667,712 L415,751 Z" id="A" fill="#000000" fill-rule="nonzero" transform="translate(396.000000, 741.000000) rotate(180.000000) translate(-396.000000, -741.000000) "></path>
        <path d="M202.268987,725 L202.268987,676.676127 C216.420886,665.587646 231.389241,662.57596 244.452532,662.57596 C251.256329,662.57596 257.379747,663.397329 265,665.313856 L265,645.737896 C259.556962,644.368948 252.889241,643 243.363924,643 C228.39557,643 214.243671,647.24374 202.268987,658.058431 L202.268987,644.368948 L179,644.368948 L179,725 L202.268987,725 Z" id="r" fill="#000000" fill-rule="nonzero" transform="translate(222.000000, 684.000000) rotate(210.000000) translate(-222.000000, -684.000000) "></path>
        <polygon id="y" fill="#000000" fill-rule="nonzero" transform="translate(678.000000, 564.000000) rotate(120.000000) translate(-678.000000, -564.000000) " points="682.37863 621 736 507 710.536585 507 679.549361 573.035757 645.598142 507 620 507 661.091754 587.030989 672.947735 587.030989 656.915215 621"></polygon>
        <path d="M78.3560976,609 L78.3560976,563.824708 C85.595122,555.337229 102.531707,547.260434 118.239024,547.260434 C137.497561,547.260434 143.234146,556.158598 143.234146,573.270451 L143.234146,609 L166.726829,609 L167,564.372287 C166.726829,534.66611 146.64878,527 125.204878,527 C105.673171,527 89.8292683,533.434057 78.3560976,542.469115 L78.3560976,528.368948 L55,528.368948 L55,609 L78.3560976,609 Z" id="n" fill="#000000" fill-rule="nonzero" transform="translate(111.000000, 568.000000) rotate(240.000000) translate(-111.000000, -568.000000) "></path>
        <path d="M569,158 C601.757353,158 624,146.151067 624,117.067323 C624,87.8489327 601.757353,76 569,76 C536.107843,76 514,87.8489327 514,117.067323 C514,146.151067 536.107843,158 569,158 Z M569.249609,137.816987 C548.072019,137.816987 537.683013,132.625037 537.683013,116.383551 C537.683013,100.008938 548.072019,94.8169873 569.249609,94.8169873 C590.294006,94.8169873 600.683013,100.008938 600.683013,116.383551 C600.683013,132.625037 590.294006,137.816987 569.249609,137.816987 Z" id="o" fill="#000000" fill-rule="nonzero" transform="translate(569.000000, 117.000000) rotate(30.000000) translate(-569.000000, -117.000000) "></path>
        <polygon id="z" fill="#000000" fill-rule="nonzero" transform="translate(109.000000, 234.000000) rotate(300.000000) translate(-109.000000, -234.000000) " points="156 274 156 254.57725 96.2680115 254.57725 156 213.42275 156 194 62 194 62 213.42275 121.731988 213.42275 62 254.57725 62 274"></polygon>
        <path d="M665.268987,277 L665.268987,228.676127 C679.420886,217.587646 694.389241,214.57596 707.452532,214.57596 C714.256329,214.57596 720.379747,215.397329 728,217.313856 L728,197.737896 C722.556962,196.368948 715.889241,195 706.363924,195 C691.39557,195 677.243671,199.24374 665.268987,210.058431 L665.268987,196.368948 L642,196.368948 L642,277 L665.268987,277 Z" id="r" fill="#000000" fill-rule="nonzero" transform="translate(685.000000, 236.000000) rotate(60.000000) translate(-685.000000, -236.000000) "></path>
        <circle id="Oval" fill="#000000" cx="224" cy="111" r="12"></circle>
        <circle id="Oval-Copy" fill="#000000" cx="560" cy="694" r="12"></circle>
    </g>
</svg>